<svg width="280" height="319" viewBox="0 0 280 319" fill="none" xmlns="http://www.w3.org/2000/svg">
<mask id="mask0_3_412" style="mask-type:alpha" maskUnits="userSpaceOnUse" x="-54" y="-47" width="376" height="412">
<path d="M92.5926 19.1998C105.966 14.4258 119.94 11.9941 134.001 11.9941L134.001 159.218L92.5926 19.1998Z" fill="#EBEBEB" stroke="#EBEBEB" stroke-width="0.5"/>
<path d="M55.2372 40.1148C66.6131 31.0341 79.219 23.9773 92.5921 19.2032L134 159.221L55.2372 40.1148Z" fill="#EBEBEB" stroke="#EBEBEB" stroke-width="0.5"/>
<path d="M25.5925 72.6857C33.8575 60.1872 43.8616 49.1959 55.2375 40.1152L134.001 159.221L25.5925 72.6857Z" fill="#EBEBEB" stroke="#EBEBEB" stroke-width="0.5"/>
<path d="M6.55788 113.725C10.9031 99.0321 17.3261 85.1822 25.5912 72.6837L133.999 159.219L6.55788 113.725Z" fill="#EBEBEB" stroke="#EBEBEB" stroke-width="0.5"/>
<path d="M-0.00103814 159.22C-0.00103963 143.771 2.21218 128.419 6.55739 113.726L133.999 159.22L-0.00103814 159.22Z" fill="#EBEBEB" stroke="#EBEBEB" stroke-width="0.5"/>
<path d="M6.5593 204.716C2.2141 190.023 0.00087197 174.67 0.000872489 159.221L134.001 159.221L6.5593 204.716Z" fill="#EBEBEB" stroke="#EBEBEB" stroke-width="0.5"/>
<path d="M25.5924 245.755C17.3274 233.257 10.9043 219.407 6.55914 204.714L134.001 159.22L25.5924 245.755Z" fill="#EBEBEB" stroke="#EBEBEB" stroke-width="0.5"/>
<path d="M55.2356 278.327C43.8597 269.246 33.8556 258.255 25.5905 245.756L133.999 159.221L55.2356 278.327Z" fill="#EBEBEB" stroke="#EBEBEB" stroke-width="0.5"/>
<path d="M92.5922 299.238C79.2191 294.464 66.6132 287.407 55.2373 278.327L134.001 159.22L92.5922 299.238Z" fill="#EBEBEB" stroke="#EBEBEB" stroke-width="0.5"/>
<path d="M134 306.443C119.939 306.443 105.965 304.012 92.592 299.238L134 159.22L134 306.443Z" fill="#EBEBEB" stroke="#EBEBEB" stroke-width="0.5"/>
<path d="M175.408 299.238C162.035 304.012 148.061 306.444 134 306.444L134 159.22L175.408 299.238Z" fill="#EBEBEB" stroke="#EBEBEB" stroke-width="0.5"/>
<path d="M212.763 278.328C201.387 287.408 188.782 294.465 175.408 299.239L134 159.221L212.763 278.328Z" fill="#EBEBEB" stroke="#EBEBEB" stroke-width="0.5"/>
<path d="M242.408 245.758C234.143 258.256 224.139 269.248 212.763 278.328L134 159.222L242.408 245.758Z" fill="#EBEBEB" stroke="#EBEBEB" stroke-width="0.5"/>
<path d="M261.441 204.718C257.096 219.411 250.673 233.261 242.408 245.759L133.999 159.223L261.441 204.718Z" fill="#EBEBEB" stroke="#EBEBEB" stroke-width="0.5"/>
<path d="M268 159.224C268 174.673 265.786 190.026 261.441 204.719L134 159.224L268 159.224Z" fill="#EBEBEB" stroke="#EBEBEB" stroke-width="0.5"/>
<path d="M261.441 113.729C265.787 128.421 268 143.774 268 159.223L134 159.223L261.441 113.729Z" fill="#EBEBEB" stroke="#EBEBEB" stroke-width="0.5"/>
<path d="M242.408 72.6872C250.673 85.1857 257.096 99.0356 261.441 113.728L134 159.223L242.408 72.6872Z" fill="#EBEBEB" stroke="#EBEBEB" stroke-width="0.5"/>
<path d="M212.763 40.1175C224.139 49.1982 234.143 60.1896 242.408 72.6881L134 159.224L212.763 40.1175Z" fill="#EBEBEB" stroke="#EBEBEB" stroke-width="0.5"/>
<path d="M175.408 19.2056C188.782 23.9796 201.388 31.0364 212.763 40.1171L134 159.223L175.408 19.2056Z" fill="#EBEBEB" stroke="#EBEBEB" stroke-width="0.5"/>
<path d="M134 12.0021C148.061 12.0021 162.035 14.4337 175.408 19.2077L134 159.226L134 12.0021Z" fill="#EBEBEB" stroke="#EBEBEB" stroke-width="0.5"/>
</mask>
<g mask="url(#mask0_3_412)">
<path d="M134 15.5C151.089 15.5 168.02 19.1976 183.83 26.3924C199.64 33.5876 214.029 44.1441 226.164 57.4767C238.3 70.8099 247.942 86.6562 254.525 104.118C261.108 121.58 264.5 140.306 264.5 159.224C264.5 178.141 261.108 196.867 254.525 214.329C247.942 231.791 238.3 247.637 226.164 260.97C214.029 274.303 199.64 284.859 183.83 292.055C168.02 299.249 151.089 302.947 134 302.947" stroke="#BA68C8" stroke-width="7"/>
</g>
<mask id="path-22-outside-1_3_412" maskUnits="userSpaceOnUse" x="122" y="0" width="158" height="319" fill="black">
<rect fill="white" x="122" width="158" height="319"/>
<path fill-rule="evenodd" clip-rule="evenodd" d="M178.652 37.7696C164.443 31.3033 149.275 28 134 28V12C151.597 12 169.022 15.808 185.28 23.2067C201.537 30.6054 216.309 41.4498 228.752 55.1208C241.195 68.7917 251.066 85.0215 257.8 102.884C264.534 120.745 268 139.89 268 159.224C268 178.557 264.534 197.702 257.8 215.564C251.066 233.426 241.195 249.655 228.752 263.326C216.309 276.997 201.537 287.842 185.28 295.24C169.022 302.639 151.597 306.447 134 306.447V290.447C149.275 290.447 164.443 287.144 178.652 280.677C192.866 274.209 205.885 264.681 216.92 252.556C227.958 240.429 236.784 225.953 242.828 209.919C248.874 193.885 252 176.654 252 159.224C252 141.793 248.874 124.562 242.829 108.528C236.784 92.4944 227.958 78.0178 216.92 65.8906C205.885 53.7665 192.866 44.2383 178.652 37.7696Z"/>
</mask>
<path d="M134 28H122V40H134V28ZM178.652 37.7696L173.682 48.6918L173.682 48.6918L178.652 37.7696ZM134 12V0H122V12H134ZM185.28 23.2067L180.309 34.1289L180.309 34.1289L185.28 23.2067ZM228.752 55.1208L237.627 47.0434L237.627 47.0434L228.752 55.1208ZM257.8 102.884L269.028 98.6503L269.028 98.6503L257.8 102.884ZM257.8 215.564L246.571 211.33L246.571 211.33L257.8 215.564ZM228.752 263.326L219.878 255.249L219.878 255.249L228.752 263.326ZM185.28 295.24L180.309 284.318L180.309 284.318L185.28 295.24ZM134 306.447H122V318.447H134V306.447ZM134 290.447V278.447H122V290.447H134ZM178.652 280.677L183.623 291.6L183.623 291.6L178.652 280.677ZM216.92 252.556L225.794 260.634L225.794 260.634L216.92 252.556ZM242.828 209.919L231.6 205.686L231.6 205.686L242.828 209.919ZM242.829 108.528L231.6 112.761L231.6 112.761L242.829 108.528ZM216.92 65.8906L208.045 73.968L208.045 73.968L216.92 65.8906ZM134 40C147.534 40 161.009 42.9248 173.682 48.6918L183.623 26.8474C167.877 19.6818 151.017 16 134 16V40ZM122 12V28H146V12H122ZM190.25 12.2846C172.456 4.1866 153.338 0 134 0V24C149.856 24 165.588 27.4295 180.309 34.1289L190.25 12.2846ZM237.627 47.0434C224.128 32.2123 208.04 20.3807 190.25 12.2846L180.309 34.1289C195.034 40.83 208.491 50.6873 219.878 63.1981L237.627 47.0434ZM269.028 98.6503C261.777 79.4169 251.124 61.8722 237.627 47.0434L219.878 63.1981C231.267 75.7112 240.354 90.6261 246.571 107.117L269.028 98.6503ZM280 159.224C280 138.463 276.279 117.883 269.028 98.6503L246.571 107.117C252.789 123.608 256 141.317 256 159.224H280ZM269.028 219.797C276.279 200.564 280 179.984 280 159.224H256C256 177.13 252.789 194.839 246.571 211.33L269.028 219.797ZM237.627 271.404C251.124 256.575 261.777 239.03 269.028 219.797L246.571 211.33C240.354 227.821 231.267 242.736 219.878 255.249L237.627 271.404ZM190.25 306.162C208.04 298.066 224.128 286.235 237.627 271.404L219.878 255.249C208.491 267.76 195.034 277.617 180.309 284.318L190.25 306.162ZM134 318.447C153.338 318.447 172.456 314.26 190.25 306.162L180.309 284.318C165.588 291.018 149.856 294.447 134 294.447V318.447ZM122 290.447V306.447H146V290.447H122ZM173.682 269.755C161.009 275.522 147.534 278.447 134 278.447V302.447C151.017 302.447 167.877 298.765 183.623 291.6L173.682 269.755ZM208.045 244.479C198.066 255.443 186.363 263.984 173.682 269.755L183.623 291.6C199.369 284.433 213.703 273.918 225.794 260.634L208.045 244.479ZM231.6 205.686C226.072 220.348 218.029 233.51 208.045 244.479L225.794 260.634C237.886 247.349 247.495 231.557 254.057 214.152L231.6 205.686ZM240 159.224C240 175.227 237.128 191.022 231.6 205.686L254.057 214.152C260.619 196.747 264 178.081 264 159.224H240ZM231.6 112.761C237.128 127.425 240 143.22 240 159.224H264C264 140.366 260.619 121.7 254.057 104.295L231.6 112.761ZM208.045 73.968C218.029 84.9373 226.072 98.0991 231.6 112.761L254.057 104.295C247.495 86.8897 237.886 71.0982 225.794 57.8132L208.045 73.968ZM173.682 48.6918C186.363 54.463 198.066 63.0041 208.045 73.968L225.794 57.8132C213.703 44.5289 199.369 34.0136 183.623 26.8474L173.682 48.6918Z" fill="#488EB0" mask="url(#path-22-outside-1_3_412)"/>
</svg>
