<svg width="280" height="319" viewBox="0 0 280 319" fill="none" xmlns="http://www.w3.org/2000/svg">
<mask id="mask0_3_411" style="mask-type:alpha" maskUnits="userSpaceOnUse" x="-54" y="-47" width="376" height="412">
<path d="M92.5926 19.1998C105.966 14.4258 119.94 11.9941 134.001 11.9941L134.001 159.218L92.5926 19.1998Z" fill="#EBEBEB" stroke="#EBEBEB" stroke-width="0.5"/>
<path d="M55.2372 40.1148C66.613 31.0341 79.219 23.9773 92.5921 19.2032L134 159.221L55.2372 40.1148Z" fill="#EBEBEB" stroke="#EBEBEB" stroke-width="0.5"/>
<path d="M25.5925 72.6857C33.8575 60.1872 43.8616 49.1959 55.2375 40.1152L134.001 159.221L25.5925 72.6857Z" fill="#EBEBEB" stroke="#EBEBEB" stroke-width="0.5"/>
<path d="M6.55788 113.725C10.9031 99.0321 17.3261 85.1822 25.5912 72.6837L133.999 159.219L6.55788 113.725Z" fill="#EBEBEB" stroke="#EBEBEB" stroke-width="0.5"/>
<path d="M-0.00103814 159.22C-0.00103963 143.771 2.21218 128.419 6.55739 113.726L133.999 159.22L-0.00103814 159.22Z" fill="#EBEBEB" stroke="#EBEBEB" stroke-width="0.5"/>
<path d="M6.5593 204.716C2.2141 190.023 0.00087197 174.67 0.000872489 159.221L134.001 159.221L6.5593 204.716Z" fill="#EBEBEB" stroke="#EBEBEB" stroke-width="0.5"/>
<path d="M25.5924 245.755C17.3274 233.257 10.9043 219.407 6.55915 204.714L134.001 159.22L25.5924 245.755Z" fill="#EBEBEB" stroke="#EBEBEB" stroke-width="0.5"/>
<path d="M55.2356 278.327C43.8597 269.246 33.8556 258.255 25.5905 245.756L133.999 159.221L55.2356 278.327Z" fill="#EBEBEB" stroke="#EBEBEB" stroke-width="0.5"/>
<path d="M92.5922 299.238C79.2191 294.464 66.6132 287.407 55.2373 278.327L134.001 159.22L92.5922 299.238Z" fill="#EBEBEB" stroke="#EBEBEB" stroke-width="0.5"/>
<path d="M134 306.443C119.939 306.443 105.965 304.012 92.592 299.238L134 159.22L134 306.443Z" fill="#EBEBEB" stroke="#EBEBEB" stroke-width="0.5"/>
<path d="M175.408 299.238C162.035 304.012 148.061 306.444 134 306.444L134 159.22L175.408 299.238Z" fill="#EBEBEB" stroke="#EBEBEB" stroke-width="0.5"/>
<path d="M212.763 278.328C201.387 287.408 188.782 294.465 175.408 299.239L134 159.221L212.763 278.328Z" fill="#EBEBEB" stroke="#EBEBEB" stroke-width="0.5"/>
<path d="M242.408 245.758C234.143 258.256 224.139 269.248 212.763 278.328L134 159.222L242.408 245.758Z" fill="#EBEBEB" stroke="#EBEBEB" stroke-width="0.5"/>
<path d="M261.441 204.718C257.096 219.411 250.673 233.261 242.408 245.759L133.999 159.224L261.441 204.718Z" fill="#EBEBEB" stroke="#EBEBEB" stroke-width="0.5"/>
<path d="M268 159.224C268 174.673 265.786 190.026 261.441 204.719L134 159.224L268 159.224Z" fill="#EBEBEB" stroke="#EBEBEB" stroke-width="0.5"/>
<path d="M261.441 113.729C265.787 128.421 268 143.774 268 159.223L134 159.223L261.441 113.729Z" fill="#EBEBEB" stroke="#EBEBEB" stroke-width="0.5"/>
<path d="M242.408 72.6872C250.673 85.1857 257.096 99.0356 261.441 113.728L134 159.223L242.408 72.6872Z" fill="#EBEBEB" stroke="#EBEBEB" stroke-width="0.5"/>
<path d="M212.763 40.1175C224.139 49.1982 234.143 60.1896 242.408 72.6881L134 159.224L212.763 40.1175Z" fill="#EBEBEB" stroke="#EBEBEB" stroke-width="0.5"/>
<path d="M175.408 19.2056C188.782 23.9796 201.388 31.0364 212.763 40.1171L134 159.223L175.408 19.2056Z" fill="#EBEBEB" stroke="#EBEBEB" stroke-width="0.5"/>
<path d="M134 12.0021C148.061 12.0021 162.035 14.4337 175.408 19.2077L134 159.226L134 12.0021Z" fill="#EBEBEB" stroke="#EBEBEB" stroke-width="0.5"/>
</mask>
<g mask="url(#mask0_3_411)">
<path d="M134 15.5C155.571 15.5 176.823 21.3911 195.846 32.6682C214.872 43.947 231.083 60.2675 242.994 80.1905C254.906 100.115 262.135 123.002 264.011 146.795C265.887 170.588 262.348 194.512 253.723 216.41C245.098 238.308 231.667 257.471 214.667 272.195C197.669 286.917 177.637 296.741 156.379 300.817C135.124 304.893 113.278 303.101 92.7967 295.594C72.3127 288.085 53.8127 275.086 38.9788 257.731" stroke="#81C784" stroke-width="7"/>
</g>
<mask id="path-22-outside-1_3_411" maskUnits="userSpaceOnUse" x="19.3182" y="0" width="261" height="319" fill="black">
<rect fill="white" x="19.3182" width="261" height="319"/>
<path fill-rule="evenodd" clip-rule="evenodd" d="M189.472 43.4208C172.331 33.2598 153.275 28 134 28V12C156.214 12 178.081 18.0678 197.631 29.6575C217.181 41.2471 233.802 57.995 245.998 78.3944C258.194 98.7937 265.583 122.204 267.5 146.52C269.417 170.836 265.802 195.294 256.979 217.693C248.157 240.092 234.404 259.731 216.959 274.841C199.513 289.951 178.922 300.059 157.039 304.255C135.155 308.451 112.665 306.604 91.5921 298.88C70.5195 291.156 51.5252 277.797 36.3182 260.005L48.4809 249.609C61.9825 265.406 78.7174 277.12 97.0986 283.857C115.467 290.59 135.013 292.187 154.025 288.541C173.046 284.894 191.085 276.084 206.483 262.746C221.892 249.401 234.174 231.933 242.092 211.829C250.012 191.723 253.278 169.703 251.55 147.777C249.821 125.853 243.163 104.832 232.265 86.6049C221.371 68.3833 206.625 53.5894 189.472 43.4208Z"/>
</mask>
<path d="M134 28H122V40H134V28ZM189.472 43.4208L195.591 33.0983L195.591 33.0983L189.472 43.4208ZM134 12V0H122V12H134ZM197.631 29.6575L203.75 19.335L203.75 19.335L197.631 29.6575ZM245.998 78.3944L235.699 84.5523L235.699 84.5523L245.998 78.3944ZM267.5 146.52L279.463 145.577L279.463 145.577L267.5 146.52ZM256.979 217.693L268.144 222.091L256.979 217.693ZM216.959 274.841L209.102 265.77L209.102 265.77L216.959 274.841ZM157.039 304.255L159.298 316.04L159.298 316.04L157.039 304.255ZM91.5921 298.88L95.722 287.613L95.722 287.613L91.5921 298.88ZM36.3182 260.005L28.5215 250.883L19.3995 258.68L27.1962 267.802L36.3182 260.005ZM48.4809 249.609L57.6029 241.813L49.8062 232.691L40.6842 240.487L48.4809 249.609ZM97.0986 283.857L101.228 272.59L101.228 272.59L97.0986 283.857ZM154.025 288.541L156.285 300.326L156.285 300.326L154.025 288.541ZM206.483 262.746L198.627 253.676L198.627 253.676L206.483 262.746ZM242.092 211.829L230.927 207.432L230.927 207.432L242.092 211.829ZM251.55 147.777L239.587 148.721L239.587 148.721L251.55 147.777ZM232.265 86.6049L242.565 80.447L242.565 80.447L232.265 86.6049ZM134 40C151.07 40 168.02 44.6539 183.352 53.7433L195.591 33.0983C176.643 21.8657 155.479 16 134 16V40ZM122 12V28H146V12H122ZM203.75 19.335C182.392 6.67382 158.419 0 134 0V24C154.01 24 173.769 29.4617 191.511 39.98L203.75 19.335ZM256.298 72.2366C243.125 50.2039 225.098 31.9905 203.75 19.335L191.511 39.98C209.264 50.5038 224.479 65.7861 235.699 84.5523L256.298 72.2366ZM279.463 145.577C277.405 119.468 269.468 94.2653 256.298 72.2366L235.699 84.5523C246.921 103.322 253.762 124.941 255.537 147.463L279.463 145.577ZM268.144 222.091C277.644 197.972 281.521 171.686 279.463 145.577L255.537 147.463C257.313 169.986 253.959 192.615 245.814 213.295L268.144 222.091ZM224.815 283.911C243.788 267.478 258.644 246.212 268.144 222.091L245.814 213.295C237.67 233.973 225.02 251.983 209.102 265.77L224.815 283.911ZM159.298 316.04C183.33 311.432 205.835 300.351 224.815 283.911L209.102 265.77C193.192 279.551 174.515 288.685 154.779 292.469L159.298 316.04ZM87.4622 310.147C110.563 318.614 135.261 320.649 159.298 316.04L154.779 292.469C135.049 296.253 114.767 294.594 95.722 287.613L87.4622 310.147ZM27.1962 267.802C43.6821 287.09 64.3709 301.683 87.4622 310.147L95.722 287.613C76.6681 280.629 59.3682 268.504 45.4402 252.208L27.1962 267.802ZM40.6842 240.487L28.5215 250.883L44.115 269.127L56.2776 258.731L40.6842 240.487ZM101.228 272.59C84.8657 266.592 69.8253 256.113 57.6029 241.813L39.3589 257.406C54.1396 274.699 72.5691 287.647 92.9687 295.124L101.228 272.59ZM151.766 276.756C134.907 279.988 117.569 278.58 101.228 272.59L92.9687 295.124C113.366 302.6 135.119 304.385 156.285 300.326L151.766 276.756ZM198.627 253.676C184.763 265.683 168.638 273.52 151.766 276.756L156.285 300.326C177.453 296.267 197.406 286.484 214.34 271.817L198.627 253.676ZM230.927 207.432C223.687 225.814 212.508 241.653 198.627 253.676L214.34 271.817C231.276 257.148 244.661 238.053 253.257 216.227L230.927 207.432ZM239.587 148.721C241.174 168.853 238.169 189.045 230.927 207.432L253.257 216.227C261.854 194.401 265.382 170.553 263.513 146.834L239.587 148.721ZM221.966 92.7628C231.889 109.36 238 128.589 239.587 148.721L263.513 146.834C261.643 123.116 254.437 100.303 242.565 80.447L221.966 92.7628ZM183.352 53.7433C198.708 62.8461 212.048 76.1746 221.966 92.7628L242.565 80.447C230.694 60.592 214.542 44.3326 195.591 33.0983L183.352 53.7433Z" fill="#488EB0" mask="url(#path-22-outside-1_3_411)"/>
</svg>
