<svg width="292" height="319" viewBox="0 0 292 319" fill="none" xmlns="http://www.w3.org/2000/svg">
<mask id="mask0_4_950" style="mask-type:alpha" maskUnits="userSpaceOnUse" x="-42" y="-47" width="376" height="412">
<path d="M104.593 19.1998C117.966 14.4258 131.94 11.9941 146.001 11.9941L146.001 159.218L104.593 19.1998Z" fill="#EBEBEB" stroke="#EBEBEB" stroke-width="0.5"/>
<path d="M67.2371 40.1148C78.613 31.0341 91.2189 23.9773 104.592 19.2032L146 159.221L67.2371 40.1148Z" fill="#EBEBEB" stroke="#EBEBEB" stroke-width="0.5"/>
<path d="M37.5925 72.6857C45.8576 60.1872 55.8617 49.1959 67.2375 40.1152L146.001 159.221L37.5925 72.6857Z" fill="#EBEBEB" stroke="#EBEBEB" stroke-width="0.5"/>
<path d="M18.5579 113.725C22.9031 99.0321 29.3261 85.1822 37.5912 72.6837L145.999 159.219L18.5579 113.725Z" fill="#EBEBEB" stroke="#EBEBEB" stroke-width="0.5"/>
<path d="M11.999 159.22C11.999 143.771 14.2122 128.419 18.5574 113.726L145.999 159.22L11.999 159.22Z" fill="#EBEBEB" stroke="#EBEBEB" stroke-width="0.5"/>
<path d="M18.5593 204.716C14.2141 190.023 12.0009 174.67 12.0009 159.221L146.001 159.221L18.5593 204.716Z" fill="#EBEBEB" stroke="#EBEBEB" stroke-width="0.5"/>
<path d="M37.5924 245.756C29.3274 233.257 22.9043 219.407 18.5591 204.714L146.001 159.22L37.5924 245.756Z" fill="#EBEBEB" stroke="#EBEBEB" stroke-width="0.5"/>
<path d="M67.2356 278.327C55.8597 269.246 45.8556 258.255 37.5905 245.756L145.999 159.221L67.2356 278.327Z" fill="#EBEBEB" stroke="#EBEBEB" stroke-width="0.5"/>
<path d="M104.592 299.238C91.2191 294.464 78.6132 287.407 67.2373 278.327L146.001 159.22L104.592 299.238Z" fill="#EBEBEB" stroke="#EBEBEB" stroke-width="0.5"/>
<path d="M146 306.443C131.939 306.443 117.965 304.012 104.592 299.238L146 159.22L146 306.443Z" fill="#EBEBEB" stroke="#EBEBEB" stroke-width="0.5"/>
<path d="M187.408 299.238C174.035 304.012 160.061 306.444 146 306.444L146 159.22L187.408 299.238Z" fill="#EBEBEB" stroke="#EBEBEB" stroke-width="0.5"/>
<path d="M224.763 278.328C213.387 287.408 200.782 294.465 187.408 299.239L146 159.221L224.763 278.328Z" fill="#EBEBEB" stroke="#EBEBEB" stroke-width="0.5"/>
<path d="M254.408 245.758C246.143 258.256 236.139 269.248 224.763 278.328L146 159.222L254.408 245.758Z" fill="#EBEBEB" stroke="#EBEBEB" stroke-width="0.5"/>
<path d="M273.441 204.718C269.096 219.411 262.673 233.261 254.408 245.759L145.999 159.223L273.441 204.718Z" fill="#EBEBEB" stroke="#EBEBEB" stroke-width="0.5"/>
<path d="M280 159.224C280 174.673 277.786 190.026 273.441 204.718L146 159.224L280 159.224Z" fill="#EBEBEB" stroke="#EBEBEB" stroke-width="0.5"/>
<path d="M273.441 113.729C277.787 128.421 280 143.774 280 159.223L146 159.223L273.441 113.729Z" fill="#EBEBEB" stroke="#EBEBEB" stroke-width="0.5"/>
<path d="M254.408 72.6873C262.673 85.1858 269.096 99.0357 273.441 113.729L146 159.223L254.408 72.6873Z" fill="#EBEBEB" stroke="#EBEBEB" stroke-width="0.5"/>
<path d="M224.763 40.1176C236.139 49.1983 246.143 60.1896 254.408 72.6881L146 159.224L224.763 40.1176Z" fill="#EBEBEB" stroke="#EBEBEB" stroke-width="0.5"/>
<path d="M187.408 19.2055C200.782 23.9795 213.388 31.0364 224.763 40.1171L146 159.223L187.408 19.2055Z" fill="#EBEBEB" stroke="#EBEBEB" stroke-width="0.5"/>
<path d="M146 12.0021C160.061 12.0021 174.035 14.4337 187.408 19.2077L146 159.226L146 12.0021Z" fill="#EBEBEB" stroke="#EBEBEB" stroke-width="0.5"/>
</mask>
<g mask="url(#mask0_4_950)">
<path d="M146 15.5C172.778 15.5 198.938 24.5757 220.912 41.5429C242.891 58.5143 259.616 82.5632 268.752 110.443C277.888 138.324 278.973 168.636 271.854 197.226C264.736 225.816 249.773 251.246 229.061 270.071C208.353 288.892 182.91 300.198 156.212 302.506C129.516 304.814 102.798 298.021 79.6954 283.01C56.5865 267.995 38.2039 245.474 27.1092 218.478C16.0139 191.479 12.7655 161.357 17.8219 132.235" stroke="#FFD54F" stroke-width="7"/>
</g>
<mask id="path-22-outside-1_4_950" maskUnits="userSpaceOnUse" x="-9.15527e-05" y="0" width="293" height="319" fill="black">
<rect fill="white" x="-9.15527e-05" width="293" height="319"/>
<path fill-rule="evenodd" clip-rule="evenodd" d="M213.272 51.4366C193.408 36.098 169.914 28 146 28V12C173.579 12 200.487 21.3494 223.051 38.7726C245.615 56.1957 262.736 80.8437 272.078 109.353C281.42 137.863 282.528 168.845 275.251 198.072C267.973 227.299 252.665 253.347 231.415 272.661C210.164 291.976 184.008 303.616 156.514 305.993C129.019 308.371 101.527 301.369 77.7884 285.945C54.05 270.521 35.2213 247.425 23.872 219.808C12.5227 192.192 9.20567 161.401 14.3735 131.637L30.1377 134.374C25.4794 161.203 28.4825 188.934 38.671 213.726C48.8563 238.51 65.6457 258.974 86.506 272.528C107.338 286.064 131.291 292.114 155.135 290.053C178.988 287.99 201.884 277.88 220.653 260.821C239.444 243.742 253.173 220.52 259.725 194.206C266.278 167.888 265.274 139.973 256.874 114.336C248.474 88.704 233.162 66.795 213.272 51.4366Z"/>
</mask>
<path d="M146 28H134V40H146V28ZM213.272 51.4366L205.938 60.9346L205.938 60.9346L213.272 51.4366ZM146 12V0H134V12H146ZM223.051 38.7726L215.717 48.2706L215.717 48.2706L223.051 38.7726ZM272.078 109.353L283.481 105.617L283.481 105.617L272.078 109.353ZM275.251 198.072L286.895 200.971L286.895 200.971L275.251 198.072ZM231.415 272.661L239.486 281.541L239.486 281.541L231.415 272.661ZM156.514 305.993L157.547 317.949L157.547 317.949L156.514 305.993ZM77.7884 285.945L84.3266 275.883L84.3266 275.883L77.7884 285.945ZM23.872 219.808L34.9712 215.247L34.9712 215.247L23.872 219.808ZM14.3735 131.637L16.4263 119.813L4.6032 117.761L2.5504 129.584L14.3735 131.637ZM30.1377 134.374L41.9608 136.426L44.0136 124.603L32.1905 122.551L30.1377 134.374ZM38.671 213.726L27.5717 218.288L27.5717 218.288L38.671 213.726ZM86.506 272.528L79.9678 282.591L79.9678 282.591L86.506 272.528ZM155.135 290.053L156.169 302.008L156.169 302.008L155.135 290.053ZM220.653 260.821L212.582 251.941L212.582 251.941L220.653 260.821ZM259.725 194.206L271.369 197.105L271.369 197.105L259.725 194.206ZM256.874 114.336L245.47 118.072L245.47 118.072L256.874 114.336ZM146 40C167.166 40 188.098 47.1596 205.938 60.9346L220.606 41.9386C198.717 25.0363 172.663 16 146 16V40ZM134 12V28H158V12H134ZM230.385 29.2746C205.796 10.2881 176.328 0 146 0V24C170.83 24 195.177 32.4107 215.717 48.2706L230.385 29.2746ZM283.481 105.617C273.432 74.9486 254.954 48.2463 230.385 29.2746L215.717 48.2706C236.275 64.145 252.04 86.7387 260.675 113.09L283.481 105.617ZM286.895 200.971C294.716 169.563 293.529 136.28 283.481 105.617L260.675 113.09C269.311 139.445 270.34 168.127 263.606 195.172L286.895 200.971ZM239.486 281.541C262.581 260.55 279.074 232.383 286.895 200.971L263.606 195.172C256.873 222.215 242.749 246.143 223.344 263.781L239.486 281.541ZM157.547 317.949C187.772 315.335 216.375 302.547 239.486 281.541L223.344 263.781C203.954 281.404 180.243 291.897 155.48 294.038L157.547 317.949ZM71.2503 296.007C97.169 312.848 127.315 320.563 157.547 317.949L155.48 294.038C130.723 296.178 105.885 289.891 84.3266 275.883L71.2503 296.007ZM12.7727 224.369C24.9949 254.11 45.353 279.18 71.2503 296.007L84.3266 275.883C62.747 261.861 45.4477 240.739 34.9712 215.247L12.7727 224.369ZM2.5504 129.584C-2.9996 161.549 0.552868 194.635 12.7727 224.369L34.9712 215.247C24.4926 189.749 21.4109 161.252 26.1966 133.689L2.5504 129.584ZM32.1905 122.551L16.4263 119.813L12.3207 143.46L28.0849 146.197L32.1905 122.551ZM49.7703 209.165C40.4523 186.491 37.6847 161.055 41.9608 136.426L18.3146 132.321C13.2741 161.351 16.5127 191.378 27.5717 218.288L49.7703 209.165ZM93.0441 262.466C74.3421 250.314 59.0825 231.824 49.7703 209.165L27.5717 218.288C38.6302 245.196 56.9492 267.634 79.9678 282.591L93.0441 262.466ZM154.101 278.097C132.995 279.922 111.696 274.585 93.0441 262.466L79.9678 282.591C102.98 297.543 129.588 304.306 156.169 302.008L154.101 278.097ZM212.582 251.941C195.674 267.308 175.224 276.271 154.101 278.097L156.169 302.008C182.752 299.709 208.094 288.452 228.724 269.701L212.582 251.941ZM248.08 191.306C242.072 215.436 229.528 236.538 212.582 251.941L228.724 269.701C249.359 250.946 264.273 225.604 271.369 197.105L248.08 191.306ZM245.47 118.072C253.165 141.555 254.09 167.17 248.08 191.306L271.369 197.105C278.466 168.606 277.384 138.39 268.277 110.599L245.47 118.072ZM205.938 60.9346C223.823 74.7446 237.778 94.5996 245.47 118.072L268.277 110.599C259.17 82.8085 242.501 58.8453 220.606 41.9386L205.938 60.9346Z" fill="#488EB0" mask="url(#path-22-outside-1_4_950)"/>
</svg>
